<svg width="33" height="33" viewBox="0 0 33 33" fill="none" xmlns="http://www.w3.org/2000/svg">
<g opacity="1">
<path fill-rule="evenodd" clip-rule="evenodd" d="M7 10C7 9.44772 7.44772 9 8 9H26C26.5523 9 27 9.44772 27 10C27 10.5523 26.5523 11 26 11H8C7.44772 11 7 10.5523 7 10ZM7 16C7 15.4477 7.44772 15 8 15H26C26.5523 15 27 15.4477 27 16C27 16.5523 26.5523 17 26 17H8C7.44772 17 7 16.5523 7 16ZM7 22C7 21.4477 7.44772 21 8 21H26C26.5523 21 27 21.4477 27 22C27 22.5523 26.5523 23 26 23H8C7.44772 23 7 22.5523 7 22Z" fill="white"/>
</g>
</svg>
