<svg width="11" height="11" viewBox="0 0 11 11" fill="none" xmlns="http://www.w3.org/2000/svg">
<path d="M5.4987 2.79036C5.35504 2.79036 5.21727 2.84743 5.11568 2.94902C5.0141 3.0506 4.95703 3.18837 4.95703 3.33203V5.4987C4.95703 5.64236 5.0141 5.78013 5.11568 5.88171C5.21727 5.9833 5.35504 6.04036 5.4987 6.04036C5.64236 6.04036 5.78013 5.9833 5.88172 5.88171C5.9833 5.78013 6.04037 5.64236 6.04037 5.4987V3.33203C6.04037 3.18837 5.9833 3.0506 5.88172 2.94902C5.78013 2.84743 5.64236 2.79036 5.4987 2.79036ZM5.99703 7.45953C5.98518 7.42501 5.96878 7.39223 5.94828 7.36203L5.88328 7.28078C5.80711 7.20562 5.71039 7.15471 5.60531 7.13446C5.50023 7.11422 5.39151 7.12555 5.29287 7.16703C5.22723 7.19446 5.16677 7.23294 5.11412 7.28078C5.06391 7.33139 5.0242 7.39142 4.99724 7.45742C4.97029 7.52341 4.95662 7.59408 4.95703 7.66536C4.95789 7.73615 4.97261 7.80608 5.00037 7.8712C5.02469 7.93842 5.06351 7.99946 5.11406 8.05001C5.1646 8.10056 5.22565 8.13937 5.29287 8.1637C5.35771 8.19236 5.42781 8.20716 5.4987 8.20716C5.56959 8.20716 5.6397 8.19236 5.70453 8.1637C5.77175 8.13937 5.8328 8.10056 5.88335 8.05001C5.93389 7.99946 5.97271 7.93842 5.99703 7.8712C6.02479 7.80608 6.03951 7.73615 6.04037 7.66536C6.04303 7.6293 6.04303 7.59309 6.04037 7.55703C6.03104 7.52249 6.01642 7.4896 5.99703 7.45953ZM5.4987 0.0820312C4.42739 0.0820312 3.38013 0.399713 2.48936 0.994904C1.5986 1.5901 0.904328 2.43606 0.494353 3.42583C0.0843782 4.4156 -0.0228899 5.50471 0.186113 6.55544C0.395117 7.60617 0.911004 8.57133 1.66854 9.32886C2.42607 10.0864 3.39123 10.6023 4.44196 10.8113C5.49269 11.0203 6.5818 10.913 7.57157 10.503C8.56134 10.0931 9.4073 9.3988 10.0025 8.50804C10.5977 7.61727 10.9154 6.57001 10.9154 5.4987C10.9154 4.78737 10.7753 4.08301 10.503 3.42583C10.2308 2.76865 9.83185 2.17152 9.32886 1.66854C8.82588 1.16555 8.22875 0.766563 7.57157 0.49435C6.91439 0.222138 6.21003 0.0820313 5.4987 0.0820312ZM5.4987 9.83203C4.64165 9.83203 3.80384 9.57789 3.09123 9.10173C2.37862 8.62558 1.8232 7.94881 1.49522 7.15699C1.16724 6.36518 1.08143 5.49389 1.24863 4.65331C1.41583 3.81272 1.82854 3.0406 2.43457 2.43457C3.0406 1.82854 3.81273 1.41583 4.65331 1.24863C5.49389 1.08143 6.36518 1.16724 7.157 1.49522C7.94881 1.8232 8.62558 2.37861 9.10174 3.09123C9.57789 3.80384 9.83203 4.64165 9.83203 5.4987C9.83203 6.64797 9.37549 7.75017 8.56283 8.56283C7.75017 9.37549 6.64797 9.83203 5.4987 9.83203Z" fill="#E30000"/>
</svg>
