<svg width="72" height="72" viewBox="0 0 72 72" fill="none" xmlns="http://www.w3.org/2000/svg">
<path d="M36 6C52.56 6 66 19.44 66 36C66 52.56 52.56 66 36 66C19.44 66 6 52.56 6 36C6 19.44 19.44 6 36 6ZM36 60C49.2801 60 60 49.2801 60 36C60 22.72 49.2801 12 36 12C22.72 12 12 22.72 12 36C12 49.2801 22.72 60 36 60ZM36 54C26.04 54 18 45.96 18 36C18 26.04 26.04 18 36 18C45.96 18 54 26.04 54 36C54 45.96 45.96 54 36 54ZM36 30C32.7 30 30 32.7 30 36C30 39.3 32.7 42 36 42C39.3 42 42 39.3 42 36C42 32.7 39.3 30 36 30Z" fill="#3985BF"/>
</svg>
