<svg width="48" height="48" viewBox="0 0 48 48" fill="none" xmlns="http://www.w3.org/2000/svg">
<path d="M26.1219 16.2219L28.9503 19.0504C34.4177 24.5178 34.4177 33.382 28.9503 38.8494L28.2433 39.5564C22.7759 45.0238 13.9116 45.0238 8.44425 39.5564C2.97691 34.0892 2.97691 25.2248 8.44425 19.7575L11.2727 22.586C7.36745 26.4912 7.36745 32.8228 11.2727 36.728C15.1779 40.6332 21.5095 40.6332 25.4149 36.728L26.1219 36.021C30.0271 32.1156 30.0271 25.784 26.1219 21.8788L23.2935 19.0504L26.1219 16.2219ZM39.5569 28.2428L36.7285 25.4144C40.6337 21.509 40.6337 15.1774 36.7285 11.2722C32.8233 7.36697 26.4917 7.36697 22.5865 11.2722L21.8793 11.9793C17.9741 15.8845 17.9741 22.2162 21.8793 26.1214L24.7077 28.9498L21.8793 31.7782L19.0509 28.9498C13.5835 23.4826 13.5835 14.6182 19.0509 9.15089L19.758 8.44377C25.2253 2.97643 34.0897 2.97643 39.5569 8.44377C45.0243 13.9111 45.0243 22.7754 39.5569 28.2428Z" fill="#FAFBFC"/>
</svg>
