<svg width="24" height="24" viewBox="0 0 24 24" fill="none" xmlns="http://www.w3.org/2000/svg">
<path d="M13.0609 8.11073L14.4751 9.52494C17.2088 12.2587 17.2088 16.6908 14.4751 19.4245L14.1216 19.778C11.3879 22.5117 6.9558 22.5117 4.22213 19.778C1.48846 17.0444 1.48846 12.6122 4.22213 9.8785L5.63635 11.2928C3.68373 13.2454 3.68373 16.4112 5.63635 18.3638C7.58897 20.3164 10.7547 20.3164 12.7074 18.3638L13.0609 18.0103C15.0135 16.0576 15.0135 12.8918 13.0609 10.9392L11.6467 9.52494L13.0609 8.11073ZM19.7784 14.1212L18.3642 12.707C20.3168 10.7543 20.3168 7.58848 18.3642 5.63586C16.4116 3.68324 13.2458 3.68324 11.2932 5.63586L10.9396 5.98941C8.98703 7.94203 8.98703 11.1079 10.9396 13.0605L12.3538 14.4747L10.9396 15.8889L9.52543 14.4747C6.79176 11.7411 6.79176 7.30887 9.52543 4.5752L9.87899 4.22164C12.6126 1.48797 17.0448 1.48797 19.7784 4.22164C22.5121 6.95531 22.5121 11.3875 19.7784 14.1212Z" fill="#FAFBFC"/>
</svg>
