<svg width="32" height="32" viewBox="0 0 32 32" fill="none" xmlns="http://www.w3.org/2000/svg">
<path d="M29 16.5C29 23.4035 23.4035 29 16.5 29C9.59644 29 4 23.4035 4 16.5C4 9.59644 9.59644 4 16.5 4C23.4035 4 29 9.59644 29 16.5ZM16.948 13.2281C15.7321 13.7338 13.3022 14.7805 9.65825 16.3681C9.06651 16.6034 8.75655 16.8336 8.72832 17.0586C8.68064 17.4391 9.15701 17.5889 9.80573 17.7929C9.89396 17.8206 9.9854 17.8494 10.0791 17.8799C10.7174 18.0872 11.5759 18.33 12.0222 18.3396C12.427 18.3484 12.8789 18.1815 13.3778 17.8389C16.7825 15.5406 18.54 14.379 18.6504 14.354C18.7282 14.3363 18.8361 14.3141 18.9091 14.379C18.9823 14.444 18.975 14.567 18.9674 14.6C18.9201 14.8012 17.0501 16.5398 16.0825 17.4394C15.7939 17.7076 15.5126 17.9816 15.2291 18.2549C14.6363 18.8264 14.1916 19.255 15.2537 19.955C16.3305 20.6646 17.4154 21.3728 18.4655 22.1214C18.9834 22.4906 19.4487 22.8224 20.0235 22.7695C20.3576 22.7388 20.7026 22.4246 20.8778 21.4879C21.2919 19.2741 22.1059 14.4776 22.294 12.501C22.3105 12.3279 22.2897 12.1063 22.2731 12.009C22.2565 11.9117 22.2216 11.773 22.0952 11.6704C21.9454 11.5489 21.7142 11.5233 21.6109 11.5251C21.1406 11.5334 20.4194 11.7842 16.948 13.2281Z" fill="#FAFBFC"/>
</svg>
