<svg width="32" height="32" viewBox="0 0 32 32" fill="none" xmlns="http://www.w3.org/2000/svg">
<path d="M5.75 5.75C4 7.51667 4 10.3417 4 16V17C4 22.65 4 25.475 5.75 27.25C7.51667 29 10.3417 29 16 29H17C22.65 29 25.475 29 27.25 27.25C29 25.4833 29 22.6583 29 17V16C29 10.35 29 7.525 27.25 5.75C25.4833 4 22.6583 4 17 4H16C10.35 4 7.525 4 5.75 5.75ZM8.21685 11.6086H11.0835C11.1752 16.3753 13.2752 18.3919 14.9418 18.8086V11.6086H17.6335V15.7169C19.2751 15.5419 21.0085 13.6669 21.5918 11.6002H24.2751C24.0564 12.67 23.6193 13.6832 22.9912 14.5765C22.3633 15.4697 21.5578 16.2239 20.6251 16.7919C21.666 17.3099 22.5851 18.0426 23.3219 18.9419C24.0589 19.8411 24.5968 20.8862 24.9001 22.0086H21.9418C21.3085 20.0336 19.7251 18.5003 17.6335 18.2919V22.0086H17.3085H17.3001C11.6002 22.0086 8.35018 18.1086 8.21685 11.6086Z" fill="#FAFBFC"/>
</svg>
