<svg width="32" height="32" viewBox="0 0 32 32" fill="none" xmlns="http://www.w3.org/2000/svg">
<path d="M16.391 4C17.2456 4.00441 19.3838 4.02379 21.6555 4.1091L22.461 4.14203C24.7483 4.24355 27.0337 4.41699 28.1672 4.71329C29.6791 5.11149 30.8675 6.27338 31.2691 7.74619C31.9086 10.085 31.9886 14.6497 31.9986 15.7544L32 15.9833V15.9993C32 15.9993 32 16.0049 32 16.0155L31.9986 16.2444C31.9886 17.3491 31.9086 21.9139 31.2691 24.2526C30.8619 25.7308 29.6735 26.8928 28.1672 27.2855C27.0337 27.5818 24.7483 27.7552 22.461 27.8567L21.6555 27.8896C19.3838 27.975 17.2456 27.9943 16.391 27.9988L16.0159 28H15.9993C15.9993 28 15.9937 28 15.9826 28L15.6079 27.9988C13.7992 27.9895 6.23663 27.9128 3.83139 27.2855C2.31946 26.8872 1.13112 25.7254 0.729425 24.2526C0.0899239 21.9139 0.00998445 17.3491 0 16.2444V15.7544C0.00998445 14.6497 0.0899239 10.085 0.729425 7.74619C1.13669 6.26792 2.32503 5.10604 3.83139 4.71329C6.23663 4.08585 13.7992 4.00933 15.6079 4H16.391ZM12.7992 10.7491V21.2496L22.3996 15.9993L12.7992 10.7491Z" fill="#FAFBFC"/>
</svg>
